<mxfile host="app.diagrams.net" agent="Mozilla/5.0 (X11; Linux x86_64; rv:121.0) Gecko/20100101 Firefox/121.0" version="24.7.10">
  <diagram name="Page-1" id="GaIt0jzdPK-TT58fEgyK">
    <mxGraphModel dx="989" dy="503" grid="1" gridSize="10" guides="1" tooltips="1" connect="1" arrows="1" fold="1" page="1" pageScale="1" pageWidth="850" pageHeight="1100" math="0" shadow="0">
      <root>
        <mxCell id="0" />
        <mxCell id="1" parent="0" />
        <mxCell id="U44kqR2rgbLLjuSTCM0y-1" value="&lt;div&gt;Patient&lt;/div&gt;" style="shape=umlActor;verticalLabelPosition=bottom;verticalAlign=top;html=1;outlineConnect=0;" vertex="1" parent="1">
          <mxGeometry x="130" y="235" width="30" height="60" as="geometry" />
        </mxCell>
        <mxCell id="U44kqR2rgbLLjuSTCM0y-6" value="&lt;div&gt;&amp;lt;&amp;lt;system&amp;gt;&amp;gt;&lt;/div&gt;&lt;div&gt;Blockchain Network&lt;br&gt;&lt;/div&gt;" style="shape=umlActor;verticalLabelPosition=bottom;verticalAlign=top;html=1;outlineConnect=0;" vertex="1" parent="1">
          <mxGeometry x="130" y="405" width="30" height="60" as="geometry" />
        </mxCell>
        <mxCell id="U44kqR2rgbLLjuSTCM0y-9" value="" style="rounded=1;whiteSpace=wrap;html=1;" vertex="1" parent="1">
          <mxGeometry x="240" y="115" width="240" height="470" as="geometry" />
        </mxCell>
        <mxCell id="U44kqR2rgbLLjuSTCM0y-12" value="&lt;div&gt;&amp;lt;&amp;lt; subsystem &amp;gt;&amp;gt;&lt;/div&gt;&lt;div&gt;Claim Management System&lt;br&gt;&lt;/div&gt;" style="text;html=1;align=center;verticalAlign=middle;resizable=0;points=[];autosize=1;strokeColor=none;fillColor=none;" vertex="1" parent="1">
          <mxGeometry x="275" y="130" width="170" height="40" as="geometry" />
        </mxCell>
        <mxCell id="U44kqR2rgbLLjuSTCM0y-13" value="Healthcare Organisation" style="shape=umlActor;verticalLabelPosition=bottom;verticalAlign=top;html=1;outlineConnect=0;" vertex="1" parent="1">
          <mxGeometry x="570" y="200" width="30" height="60" as="geometry" />
        </mxCell>
        <mxCell id="U44kqR2rgbLLjuSTCM0y-14" value="TPA" style="shape=umlActor;verticalLabelPosition=bottom;verticalAlign=top;html=1;outlineConnect=0;" vertex="1" parent="1">
          <mxGeometry x="570" y="320" width="30" height="60" as="geometry" />
        </mxCell>
        <mxCell id="U44kqR2rgbLLjuSTCM0y-15" value="Insurance Company" style="shape=umlActor;verticalLabelPosition=bottom;verticalAlign=top;html=1;outlineConnect=0;" vertex="1" parent="1">
          <mxGeometry x="570" y="450" width="30" height="60" as="geometry" />
        </mxCell>
        <mxCell id="U44kqR2rgbLLjuSTCM0y-24" style="rounded=0;orthogonalLoop=1;jettySize=auto;html=1;entryX=0;entryY=0.5;entryDx=0;entryDy=0;endArrow=open;endFill=0;" edge="1" parent="1" source="U44kqR2rgbLLjuSTCM0y-1" target="U44kqR2rgbLLjuSTCM0y-18">
          <mxGeometry relative="1" as="geometry" />
        </mxCell>
        <mxCell id="U44kqR2rgbLLjuSTCM0y-18" value="Personal Data Collection" style="ellipse;whiteSpace=wrap;html=1;" vertex="1" parent="1">
          <mxGeometry x="300" y="200" width="120" height="50" as="geometry" />
        </mxCell>
        <mxCell id="U44kqR2rgbLLjuSTCM0y-26" style="rounded=0;orthogonalLoop=1;jettySize=auto;html=1;entryX=1;entryY=0.5;entryDx=0;entryDy=0;endArrow=open;endFill=0;strokeColor=default;curved=0;" edge="1" parent="1" source="U44kqR2rgbLLjuSTCM0y-13" target="U44kqR2rgbLLjuSTCM0y-20">
          <mxGeometry relative="1" as="geometry" />
        </mxCell>
        <mxCell id="U44kqR2rgbLLjuSTCM0y-28" style="edgeStyle=none;shape=connector;rounded=0;orthogonalLoop=1;jettySize=auto;html=1;exitX=1;exitY=0.5;exitDx=0;exitDy=0;strokeColor=default;align=center;verticalAlign=middle;fontFamily=Helvetica;fontSize=11;fontColor=default;labelBackgroundColor=default;endArrow=open;endFill=0;" edge="1" parent="1" source="U44kqR2rgbLLjuSTCM0y-20" target="U44kqR2rgbLLjuSTCM0y-14">
          <mxGeometry relative="1" as="geometry" />
        </mxCell>
        <mxCell id="U44kqR2rgbLLjuSTCM0y-29" style="edgeStyle=none;shape=connector;rounded=0;orthogonalLoop=1;jettySize=auto;html=1;exitX=0;exitY=0.5;exitDx=0;exitDy=0;strokeColor=default;align=center;verticalAlign=middle;fontFamily=Helvetica;fontSize=11;fontColor=default;labelBackgroundColor=default;endArrow=open;endFill=0;" edge="1" parent="1" source="U44kqR2rgbLLjuSTCM0y-20" target="U44kqR2rgbLLjuSTCM0y-6">
          <mxGeometry relative="1" as="geometry">
            <mxPoint x="160" y="430" as="targetPoint" />
          </mxGeometry>
        </mxCell>
        <mxCell id="U44kqR2rgbLLjuSTCM0y-39" style="edgeStyle=none;shape=connector;rounded=0;orthogonalLoop=1;jettySize=auto;html=1;exitX=0.5;exitY=1;exitDx=0;exitDy=0;entryX=0.5;entryY=0;entryDx=0;entryDy=0;strokeColor=default;align=center;verticalAlign=middle;fontFamily=Helvetica;fontSize=11;fontColor=default;labelBackgroundColor=default;endArrow=open;dashed=1;endFill=0;" edge="1" parent="1" source="U44kqR2rgbLLjuSTCM0y-20" target="U44kqR2rgbLLjuSTCM0y-21">
          <mxGeometry relative="1" as="geometry" />
        </mxCell>
        <mxCell id="U44kqR2rgbLLjuSTCM0y-20" value="Data Submission" style="ellipse;whiteSpace=wrap;html=1;" vertex="1" parent="1">
          <mxGeometry x="300" y="260" width="120" height="50" as="geometry" />
        </mxCell>
        <mxCell id="U44kqR2rgbLLjuSTCM0y-41" style="edgeStyle=none;shape=connector;rounded=0;orthogonalLoop=1;jettySize=auto;html=1;exitX=0;exitY=0.5;exitDx=0;exitDy=0;strokeColor=default;align=center;verticalAlign=middle;fontFamily=Helvetica;fontSize=11;fontColor=default;labelBackgroundColor=default;endArrow=open;endFill=0;" edge="1" parent="1" source="U44kqR2rgbLLjuSTCM0y-21">
          <mxGeometry relative="1" as="geometry">
            <mxPoint x="160" y="430" as="targetPoint" />
          </mxGeometry>
        </mxCell>
        <mxCell id="U44kqR2rgbLLjuSTCM0y-43" style="edgeStyle=none;shape=connector;rounded=0;orthogonalLoop=1;jettySize=auto;html=1;exitX=1;exitY=0.5;exitDx=0;exitDy=0;strokeColor=default;align=center;verticalAlign=middle;fontFamily=Helvetica;fontSize=11;fontColor=default;labelBackgroundColor=default;endArrow=open;endFill=0;entryX=1;entryY=0.5;entryDx=0;entryDy=0;" edge="1" parent="1" target="U44kqR2rgbLLjuSTCM0y-21">
          <mxGeometry relative="1" as="geometry">
            <mxPoint x="569.9999999999998" y="240" as="sourcePoint" />
          </mxGeometry>
        </mxCell>
        <mxCell id="U44kqR2rgbLLjuSTCM0y-45" style="edgeStyle=none;shape=connector;rounded=0;orthogonalLoop=1;jettySize=auto;html=1;strokeColor=default;align=center;verticalAlign=middle;fontFamily=Helvetica;fontSize=11;fontColor=default;labelBackgroundColor=default;endArrow=open;endFill=0;" edge="1" parent="1" source="U44kqR2rgbLLjuSTCM0y-1">
          <mxGeometry relative="1" as="geometry">
            <mxPoint x="300" y="365" as="targetPoint" />
          </mxGeometry>
        </mxCell>
        <mxCell id="U44kqR2rgbLLjuSTCM0y-46" style="rounded=0;orthogonalLoop=1;jettySize=auto;html=1;exitX=1;exitY=0.5;exitDx=0;exitDy=0;endArrow=open;endFill=0;" edge="1" parent="1" source="U44kqR2rgbLLjuSTCM0y-21" target="U44kqR2rgbLLjuSTCM0y-14">
          <mxGeometry relative="1" as="geometry" />
        </mxCell>
        <mxCell id="U44kqR2rgbLLjuSTCM0y-21" value="Treatment Report Generation and Submission" style="ellipse;whiteSpace=wrap;html=1;" vertex="1" parent="1">
          <mxGeometry x="300" y="340" width="120" height="50" as="geometry" />
        </mxCell>
        <mxCell id="U44kqR2rgbLLjuSTCM0y-30" style="edgeStyle=none;shape=connector;rounded=0;orthogonalLoop=1;jettySize=auto;html=1;exitX=0;exitY=0.5;exitDx=0;exitDy=0;strokeColor=default;align=center;verticalAlign=middle;fontFamily=Helvetica;fontSize=11;fontColor=default;labelBackgroundColor=default;endArrow=open;endFill=0;" edge="1" parent="1" source="U44kqR2rgbLLjuSTCM0y-22" target="U44kqR2rgbLLjuSTCM0y-6">
          <mxGeometry relative="1" as="geometry" />
        </mxCell>
        <mxCell id="U44kqR2rgbLLjuSTCM0y-34" style="edgeStyle=none;shape=connector;rounded=0;orthogonalLoop=1;jettySize=auto;html=1;exitX=1;exitY=0.5;exitDx=0;exitDy=0;strokeColor=default;align=center;verticalAlign=middle;fontFamily=Helvetica;fontSize=11;fontColor=default;labelBackgroundColor=default;endArrow=open;endFill=0;" edge="1" parent="1" source="U44kqR2rgbLLjuSTCM0y-22" target="U44kqR2rgbLLjuSTCM0y-15">
          <mxGeometry relative="1" as="geometry" />
        </mxCell>
        <mxCell id="U44kqR2rgbLLjuSTCM0y-35" style="edgeStyle=none;shape=connector;rounded=0;orthogonalLoop=1;jettySize=auto;html=1;strokeColor=default;align=center;verticalAlign=middle;fontFamily=Helvetica;fontSize=11;fontColor=default;labelBackgroundColor=default;endArrow=open;entryX=1;entryY=0.5;entryDx=0;entryDy=0;endFill=0;" edge="1" parent="1" source="U44kqR2rgbLLjuSTCM0y-14" target="U44kqR2rgbLLjuSTCM0y-22">
          <mxGeometry relative="1" as="geometry" />
        </mxCell>
        <mxCell id="U44kqR2rgbLLjuSTCM0y-22" value="Claim Submission" style="ellipse;whiteSpace=wrap;html=1;" vertex="1" parent="1">
          <mxGeometry x="300" y="420" width="120" height="50" as="geometry" />
        </mxCell>
        <mxCell id="U44kqR2rgbLLjuSTCM0y-31" style="edgeStyle=none;shape=connector;rounded=0;orthogonalLoop=1;jettySize=auto;html=1;exitX=0;exitY=0.5;exitDx=0;exitDy=0;strokeColor=default;align=center;verticalAlign=middle;fontFamily=Helvetica;fontSize=11;fontColor=default;labelBackgroundColor=default;endArrow=open;endFill=0;" edge="1" parent="1" source="U44kqR2rgbLLjuSTCM0y-23" target="U44kqR2rgbLLjuSTCM0y-6">
          <mxGeometry relative="1" as="geometry" />
        </mxCell>
        <mxCell id="U44kqR2rgbLLjuSTCM0y-33" style="edgeStyle=none;shape=connector;rounded=0;orthogonalLoop=1;jettySize=auto;html=1;strokeColor=default;align=center;verticalAlign=middle;fontFamily=Helvetica;fontSize=11;fontColor=default;labelBackgroundColor=default;endArrow=open;entryX=1;entryY=0.5;entryDx=0;entryDy=0;endFill=0;" edge="1" parent="1" source="U44kqR2rgbLLjuSTCM0y-15" target="U44kqR2rgbLLjuSTCM0y-23">
          <mxGeometry relative="1" as="geometry" />
        </mxCell>
        <mxCell id="U44kqR2rgbLLjuSTCM0y-36" style="edgeStyle=none;shape=connector;rounded=0;orthogonalLoop=1;jettySize=auto;html=1;exitX=0.5;exitY=0;exitDx=0;exitDy=0;entryX=0.5;entryY=1;entryDx=0;entryDy=0;strokeColor=default;align=center;verticalAlign=middle;fontFamily=Helvetica;fontSize=11;fontColor=default;labelBackgroundColor=default;endArrow=open;endFill=0;dashed=1;" edge="1" parent="1" source="U44kqR2rgbLLjuSTCM0y-23" target="U44kqR2rgbLLjuSTCM0y-22">
          <mxGeometry relative="1" as="geometry" />
        </mxCell>
        <mxCell id="U44kqR2rgbLLjuSTCM0y-42" style="edgeStyle=none;shape=connector;rounded=0;orthogonalLoop=1;jettySize=auto;html=1;exitX=1;exitY=0.5;exitDx=0;exitDy=0;strokeColor=default;align=center;verticalAlign=middle;fontFamily=Helvetica;fontSize=11;fontColor=default;labelBackgroundColor=default;endArrow=none;endFill=0;" edge="1" parent="1" source="U44kqR2rgbLLjuSTCM0y-23" target="U44kqR2rgbLLjuSTCM0y-13">
          <mxGeometry relative="1" as="geometry">
            <mxPoint x="569.9999999999998" y="240" as="targetPoint" />
          </mxGeometry>
        </mxCell>
        <mxCell id="U44kqR2rgbLLjuSTCM0y-44" style="edgeStyle=none;shape=connector;rounded=0;orthogonalLoop=1;jettySize=auto;html=1;strokeColor=default;align=center;verticalAlign=middle;fontFamily=Helvetica;fontSize=11;fontColor=default;labelBackgroundColor=default;endArrow=none;endFill=0;exitX=0;exitY=0.5;exitDx=0;exitDy=0;" edge="1" parent="1" source="U44kqR2rgbLLjuSTCM0y-23" target="U44kqR2rgbLLjuSTCM0y-1">
          <mxGeometry relative="1" as="geometry">
            <mxPoint x="300" y="530" as="sourcePoint" />
          </mxGeometry>
        </mxCell>
        <mxCell id="U44kqR2rgbLLjuSTCM0y-23" value="Claim Verification and Approval" style="ellipse;whiteSpace=wrap;html=1;" vertex="1" parent="1">
          <mxGeometry x="300" y="510" width="120" height="50" as="geometry" />
        </mxCell>
        <mxCell id="U44kqR2rgbLLjuSTCM0y-25" style="rounded=0;orthogonalLoop=1;jettySize=auto;html=1;exitX=1;exitY=0.5;exitDx=0;exitDy=0;endArrow=open;endFill=0;" edge="1" parent="1" source="U44kqR2rgbLLjuSTCM0y-18" target="U44kqR2rgbLLjuSTCM0y-13">
          <mxGeometry relative="1" as="geometry" />
        </mxCell>
        <mxCell id="U44kqR2rgbLLjuSTCM0y-38" value="&amp;lt;&amp;lt;include&amp;gt;&amp;gt;" style="text;strokeColor=none;align=center;fillColor=none;html=1;verticalAlign=middle;whiteSpace=wrap;rounded=0;fontFamily=Helvetica;fontSize=11;fontColor=default;labelBackgroundColor=default;" vertex="1" parent="1">
          <mxGeometry x="365" y="480" width="60" height="30" as="geometry" />
        </mxCell>
        <mxCell id="U44kqR2rgbLLjuSTCM0y-40" value="&lt;div&gt;&amp;lt;extend&amp;gt;&amp;gt;&lt;/div&gt;" style="text;strokeColor=none;align=center;fillColor=none;html=1;verticalAlign=middle;whiteSpace=wrap;rounded=0;fontFamily=Helvetica;fontSize=11;fontColor=default;labelBackgroundColor=default;" vertex="1" parent="1">
          <mxGeometry x="365" y="310" width="60" height="30" as="geometry" />
        </mxCell>
      </root>
    </mxGraphModel>
  </diagram>
</mxfile>
